HIERARCHY
ROOT hip
{
  OFFSET 0 0 0
  CHANNELS 6 Xposition Yposition Zposition Zrotation Yrotation Xrotation
  JOINT abdomen
  {
    OFFSET 0 20.6881 -0.73152
    CHANNELS 3 Zrotation Xrotation Yrotation
    JOINT chest
    {
      OFFSET 0 11.7043 -0.48768
      CHANNELS 3 Zrotation Xrotation Yrotation
      JOINT neck
      {
        OFFSET 0 22.1894 -2.19456
        CHANNELS 3 Zrotation Xrotation Yrotation
        JOINT head
        {
          OFFSET -0.24384 7.07133 1.2192
          CHANNELS 3 Zrotation Xrotation Yrotation
          JOINT leftEye
          {
            OFFSET 4.14528 8.04674 8.04672
            CHANNELS 3 Zrotation Xrotation Yrotation
            End Site
            {
              OFFSET 1 0 0
            }
          }
          JOINT rightEye
          {
            OFFSET -3.6576 8.04674 8.04672
            CHANNELS 3 Zrotation Xrotation Yrotation
            End Site
            {
              OFFSET 1 0 0
            }
          }
        }
      }
      JOINT rCollar
      {
        OFFSET -2.68224 19.2634 -4.8768
        CHANNELS 3 Zrotation Xrotation Yrotation
        JOINT rShldr
        {
          OFFSET -8.77824 -1.95073 1.46304
          CHANNELS 3 Zrotation Xrotation Yrotation
          JOINT rForeArm
          {
            OFFSET -28.1742 -1.7115 0.48768
            CHANNELS 3 Zrotation Xrotation Yrotation
            JOINT rHand
            {
              OFFSET -22.5879 0.773209 7.07136
              CHANNELS 3 Zrotation Xrotation Yrotation
              JOINT rThumb1
              {
                OFFSET -1.2192 -0.487915 3.41376
                CHANNELS 3 Zrotation Xrotation Yrotation
                JOINT rThumb2
                {
                  OFFSET -3.37035 -0.52449 3.41376
                  CHANNELS 3 Zrotation Xrotation Yrotation
                  End Site
                  {
                    OFFSET -1.78271 -1.18214 1.43049
                  }
                }
              }
              JOINT rIndex1
              {
                OFFSET -7.75947 0.938293 5.60832
                CHANNELS 3 Zrotation Xrotation Yrotation
                JOINT rIndex2
                {
                  OFFSET -2.54057 -0.884171 1.56538
                  CHANNELS 3 Zrotation Xrotation Yrotation
                  End Site
                  {
                    OFFSET -1.62519 -0.234802 1.16502
                  }
                }
              }
              JOINT rMid1
              {
                OFFSET -8.24714 1.18213 3.41376
                CHANNELS 3 Zrotation Xrotation Yrotation
                JOINT rMid2
                {
                  OFFSET -3.10165 -0.590103 1.0647
                  CHANNELS 3 Zrotation Xrotation Yrotation
                  End Site
                  {
                    OFFSET -2.48547 -0.328903 0.83742
                  }
                }
              }
              JOINT rRing1
              {
                OFFSET -8.82822 0.546677 1.51678
                CHANNELS 3 Zrotation Xrotation Yrotation
                JOINT rRing2
                {
                  OFFSET -2.60934 -0.819778 -0.0198488
                  CHANNELS 3 Zrotation Xrotation Yrotation
                  End Site
                  {
                    OFFSET -2.33842 -0.294052 0.168128
                  }
                }
              }
              JOINT rPinky1
              {
                OFFSET -8.27202 -0.0477905 -0.4584
                CHANNELS 3 Zrotation Xrotation Yrotation
                JOINT rPinky2
                {
                  OFFSET -1.82734 -0.647385 -0.700984
                  CHANNELS 3 Zrotation Xrotation Yrotation
                  End Site
                  {
                    OFFSET -1.69225 -0.51767 -0.607171
                  }
                }
              }
            }
          }
        }
      }
      JOINT lCollar
      {
        OFFSET 2.68224 19.2634 -4.8768
        CHANNELS 3 Zrotation Xrotation Yrotation
        JOINT lShldr
        {
          OFFSET 8.77824 -1.95073 1.46304
          CHANNELS 3 Zrotation Xrotation Yrotation
          JOINT lForeArm
          {
            OFFSET 28.1742 -1.7115 0.48768
            CHANNELS 3 Zrotation Xrotation Yrotation
            JOINT lHand
            {
              OFFSET 22.5879 0.773209 7.07136
              CHANNELS 3 Zrotation Xrotation Yrotation
              JOINT lThumb1
              {
                OFFSET 1.2192 -0.487915 3.41376
                CHANNELS 3 Zrotation Xrotation Yrotation
                JOINT lThumb2
                {
                  OFFSET 3.37035 -0.52449 3.41376
                  CHANNELS 3 Zrotation Xrotation Yrotation
                  End Site
                  {
                    OFFSET 1.78271 -1.18214 1.43049
                  }
                }
              }
              JOINT lIndex1
              {
                OFFSET 7.75947 0.938293 5.60832
                CHANNELS 3 Zrotation Xrotation Yrotation
                JOINT lIndex2
                {
                  OFFSET 2.54057 -0.884171 1.56538
                  CHANNELS 3 Zrotation Xrotation Yrotation
                  End Site
                  {
                    OFFSET 1.62519 -0.234802 1.16502
                  }
                }
              }
              JOINT lMid1
              {
                OFFSET 8.24714 1.18213 3.41376
                CHANNELS 3 Zrotation Xrotation Yrotation
                JOINT lMid2
                {
                  OFFSET 3.10165 -0.590103 1.0647
                  CHANNELS 3 Zrotation Xrotation Yrotation
                  End Site
                  {
                    OFFSET 2.48547 -0.328903 0.83742
                  }
                }
              }
              JOINT lRing1
              {
                OFFSET 8.82822 0.546677 1.51678
                CHANNELS 3 Zrotation Xrotation Yrotation
                JOINT lRing2
                {
                  OFFSET 2.60934 -0.819778 -0.0198488
                  CHANNELS 3 Zrotation Xrotation Yrotation
                  End Site
                  {
                    OFFSET 2.33842 -0.294052 0.168128
                  }
                }
              }
              JOINT lPinky1
              {
                OFFSET 8.27202 -0.0477905 -0.4584
                CHANNELS 3 Zrotation Xrotation Yrotation
                JOINT lPinky2
                {
                  OFFSET 1.82734 -0.647385 -0.700984
                  CHANNELS 3 Zrotation Xrotation Yrotation
                  End Site
                  {
                    OFFSET 1.69225 -0.51767 -0.607171
                  }
                }
              }
            }
          }
        }
      }
    }
  }
  JOINT rButtock
  {
    OFFSET -8.77824 4.35084 1.2192
    CHANNELS 3 Zrotation Xrotation Yrotation
    JOINT rThigh
    {
      OFFSET 0 -1.70687 -2.19456
      CHANNELS 3 Zrotation Xrotation Yrotation
      JOINT rShin
      {
        OFFSET 0 -36.8199 0.73152
        CHANNELS 3 Zrotation Xrotation Yrotation
        JOINT rFoot
        {
          OFFSET 0.73152 -45.1104 -5.12064
          CHANNELS 3 Zrotation Xrotation Yrotation
          End Site
          {
            OFFSET -1.1221 -3.69964 12.103
          }
        }
      }
    }
  }
  JOINT lButtock
  {
    OFFSET 8.77824 4.35084 1.2192
    CHANNELS 3 Zrotation Xrotation Yrotation
    JOINT lThigh
    {
      OFFSET 0 -1.70687 -2.19456
      CHANNELS 3 Zrotation Xrotation Yrotation
      JOINT lShin
      {
        OFFSET 0 -36.8199 0.73152
        CHANNELS 3 Zrotation Xrotation Yrotation
        JOINT lFoot
        {
          OFFSET -0.73152 -45.1104 -5.12064
          CHANNELS 3 Zrotation Xrotation Yrotation
          End Site
          {
            OFFSET 1.1221 -3.69964 12.103
          }
        }
      }
    }
  }
}
MOTION
Frames:	5
Frame Time:	0.03333
-40.333400000000005 63.3471 -19.7051 -178.123571 -33.427427 -179.430325 -3.546608 13.806583 -0.0 6.504476 -11.34726 -4.459979 -16.055849 28.378686 -73.324293 39.391477 0.150948 27.202405 -0.000214 0.0 -0.004404 0.000476 0.0 0.000939 -157.371186 -17.927645 164.690597 -18.656328 5.050498 -26.111631 13.77974 -69.5334 -105.474024 130.92805 -52.489912 124.959887 16.891611 -16.714832 -0.117035 -127.945588 -9.396333 114.791472 -13.869948 18.815193 9.291425 -87.737131 47.58735 66.913917 -151.475886 17.841162 137.537599 167.392275 -63.995589 132.432273 -145.119546 0.267848 -179.212285 12.007757 33.470499 -5.210097 1.134776 3.040385 1.044832 -114.89111 -42.756145 -113.721509 152.128336 14.113099 -157.556598 90.536123 38.181899 -45.81457 174.351149 13.352371 73.075435 20.430686 -58.863229 18.568485 0.491757 0.484584 -0.077781 66.89577 27.857835 -61.17912 138.492812 4.896269 -114.865037 -178.689032 -44.682687 -113.692229 167.377183 -28.008386 -145.267985 170.351192 -25.728372 -143.900653 -0.001003 0.063702 -0.02094 -9.348539 11.534798 -1.489424 144.109846 8.781689 140.874681 138.378222 -10.939313 134.627328 179.985374 75.749952 0.010008 142.218105 7.525725 91.908064 80.559106 -2.099245 104.683542 76.913775 7.910068 -170.922724 0.006159 -0.00031 0.006159 30.463104 -39.123523 20.848721 -96.04624 71.857363 3.942253 -156.258861 46.32425 -115.978033
-40.2941 63.324400000000004 -19.420299999999997 -177.885268 -33.180988 -179.432767 -2.512452 9.268794 -164.760937 -3.730297 7.979524 159.778563 4.091669 22.713384 61.722697 -33.247503 -6.335355 -112.750354 0.004613 -0.0 -0.004911 -0.000264 -0.0 0.003076 -130.419751 54.548979 134.287303 77.483411 -66.609819 105.879696 103.515046 85.112248 144.639389 134.988036 -50.14943 128.678459 -171.705958 -9.388477 89.948838 -171.442837 -8.961107 90.36793 159.643153 -69.973671 102.398008 -2.180059 28.567594 0.94377 173.120891 -66.297477 137.612347 -88.774786 63.805499 80.315763 -0.059062 -3.429614 -1.080889 -34.929671 75.983748 48.358507 34.824502 84.364531 3.795401 39.985689 80.171985 -4.708394 -0.034776 -0.209391 0.046886 -21.997104 -76.19164 55.448481 -143.041284 9.325607 48.268219 24.901533 -8.443381 -3.317958 -66.257953 -46.842442 -22.117354 34.716788 17.123451 0.305438 0.327259 0.530157 -0.185159 65.771853 48.399193 -50.65984 10.97602 25.789744 -7.640669 -91.975041 -78.554229 -62.88592 -0.000683 0.063637 -0.021371 156.478558 -42.78385 -177.030975 144.110479 8.781017 140.875728 -73.134441 84.114276 34.960723 -179.998548 75.748513 -0.000994 145.169722 7.369157 -100.444458 -79.652873 -6.632346 -107.911196 -89.199827 -7.581869 176.876595 -179.980638 75.748513 -0.014923 -154.847212 28.12209 88.070972 93.657139 -5.960604 -10.926457 -99.482402 31.882313 -10.781389
-40.503 63.2753 -18.5992 -177.259409 -32.598256 -179.583594 -1.820754 9.493001 -169.090319 -4.2489 7.610081 164.625919 -15.057455 25.134327 -54.305135 34.961521 -11.3997 11.399319 -0.000715 -0.0 0.002495 -0.001384 0.0 -0.002849 1.988255 -14.037374 -2.878733 -130.963201 -26.978738 156.409307 23.49709 -55.535884 -97.558811 141.226478 -45.768651 133.941597 178.338901 -19.018489 88.988258 -19.859029 -43.964193 -3.144391 -151.354071 -17.158381 121.13257 -169.565328 -31.663577 118.363232 -167.37367 -28.008755 145.269099 18.183987 -42.048303 0.319203 0.00173 0.063467 0.02158 7.441593 26.544393 4.022421 12.631669 42.934059 10.534436 1.293923 -1.146332 -0.665586 150.168753 21.535194 -155.27516 42.750616 -17.700738 -39.21905 -46.726183 11.067639 172.278951 60.63425 41.695822 -44.887108 0.442001 0.435151 -0.068839 -35.267511 -57.556625 17.729194 140.164952 2.326524 -115.878021 135.661331 32.337971 -107.566999 10.975141 25.790255 -7.638746 163.236053 -4.943784 -143.346929 -0.000738 -0.061041 0.017865 -9.23753 12.719402 -1.659661 154.408763 46.073216 149.058164 -1.858157 0.375931 1.680149 -179.997728 75.749524 -0.0 144.542988 7.882502 79.099897 65.876556 10.642659 -90.22764 53.144177 6.848622 -5.438585 -179.996145 75.75058 -0.002638 -153.109795 27.140882 -94.813725 -94.616242 5.000184 167.916167 134.008375 -54.143165 37.252348
-41.1269 63.2526 -17.2061 -177.097174 -31.561076 -179.378312 -1.67614 14.551339 6.643247 4.447247 -11.785826 -10.110743 -7.910834 38.401999 -151.100765 26.172493 43.298917 93.570494 0.00041 0.0 0.002202 0.000516 0.0 0.004198 3.26881 -26.755838 -5.241563 -11.702078 71.856046 66.708961 -92.402403 -17.747845 -26.107676 11.024077 -7.359075 10.645666 178.339395 -19.018655 88.989085 -156.597791 4.529307 86.026624 -4.707833 7.223447 2.855969 4.703896 8.354533 1.120097 -160.672963 -6.667669 143.245969 -163.572133 -5.629842 143.05335 0.004783 0.87632 0.276193 9.718246 6.857611 0.828548 -145.544123 13.244874 -142.148488 -154.269322 32.505333 -145.45865 159.210982 -46.728613 -170.137231 -72.548081 66.88305 114.377285 -167.227603 -86.254029 -20.350631 131.587366 37.076466 -119.299904 17.20122 15.600575 -4.929657 1.112404 1.916556 -10.860839 7.586624 11.218778 -4.770139 12.192698 26.760502 -8.996631 -173.124282 -66.297821 -137.615698 170.401009 -25.705602 -144.002366 75.67269 -72.115992 92.828987 -14.136801 26.712819 1.10233 -12.988129 44.344169 -10.763895 153.162884 29.135491 146.822919 -179.9868 75.749237 -0.010174 146.987772 8.011014 66.16914 68.673936 16.252287 2.575442 -70.105505 63.008021 5.894113 -179.9868 75.749237 -0.010174 -157.601049 27.346995 -10.311579 -109.534064 76.071155 18.025661 16.640083 36.62819 108.173864
-42.3703 63.378 -15.304400000000001 -177.274277 -29.513072 -179.204586 -1.289061 10.639314 159.793812 -7.52773 4.000261 -163.244965 -11.008605 21.215296 -24.13531 20.85184 -26.756668 -17.748728 0.000246 0.0 0.005973 0.000174 0.0 0.00385 -40.725873 63.137801 43.344009 81.702349 -48.10917 88.523141 168.990228 44.201143 79.396611 151.759503 -37.273694 139.4669 -12.92684 12.051468 3.309578 -133.881984 -35.444164 110.602605 174.383123 -63.060218 113.273124 87.964844 -67.805352 31.999549 -169.088761 -33.247495 145.375151 -164.131286 -7.028337 143.206808 0.006675 1.770801 0.557053 -6.766341 62.74764 19.310495 0.709659 1.877878 0.65179 -22.788621 -40.17762 -23.480574 0.049464 0.292315 -0.065399 -71.87446 20.932541 1.803828 -176.970426 -20.138999 -34.202005 126.769065 40.485547 -113.680736 10.083137 9.554019 -2.366086 159.42972 -64.184139 -109.343535 151.353346 -17.158256 -121.133353 62.152695 57.36031 -46.047179 169.089863 -33.247338 -145.375002 88.709832 63.721068 -80.332931 145.120521 0.268088 179.211763 15.742992 -68.125709 36.864495 -3.65275 10.395934 -3.320656 -14.391968 41.832138 -8.458243 0.000155 -0.000881 -0.000199 -53.521977 -55.428441 -180.0 -69.025779 -33.793145 -130.290851 -121.629887 -20.479807 141.957278 0.000605 -0.000881 0.000151 23.336969 -46.494988 -86.757673 -98.399166 -23.052099 -9.379658 -9.790284 58.163594 122.621318
